<?xml version="1.0" encoding="utf-8"?>
<!-- Generator: Adobe Illustrator 27.0.0, SVG Export Plug-In . SVG Version: 6.00 Build 0)  -->
<svg version="1.1" id="圖層_2_1_" xmlns="http://www.w3.org/2000/svg" xmlns:xlink="http://www.w3.org/1999/xlink" x="0px"
	 y="0px" width="33.2px" height="17.2px" viewBox="0 0 33.2 17.2" style="enable-background:new 0 0 33.2 17.2;"
	 xml:space="preserve">
<style type="text/css">
	.st0{display:none;fill:#E7141A;}
	.st1{fill:#292828;}
</style>
<polygon class="st0" points="14.9,-1.2 -0.1,10.8 52.8,10.8 45.3,18.3 59.9,7.9 6.5,7.9 "/>
<g>
	<path class="st1" d="M7.8,17.2v-4.4L3.7,8.7c-0.1-0.1-0.1-0.2,0-0.3l4.1-4.1V0L0.1,8.5C0,8.6,0,8.6,0.1,8.7L7.8,17.2z"/>
	<path class="st1" d="M33.2,8.7c0.1-0.1,0.1-0.2,0-0.3L25.4,0v4.4l4.1,4.1c0.1,0.1,0.1,0.2,0,0.3l-4.1,4.1v4.4L33.2,8.7z"/>
	<rect x="3.3" y="7" class="st1" width="27.8" height="3.3"/>
</g>
</svg>
